<mxfile host="app.diagrams.net" modified="2022-04-14T08:52:48.656Z" agent="5.0 (Windows NT 10.0; Win64; x64) AppleWebKit/537.36 (KHTML, like Gecko) Chrome/100.0.4896.75 Safari/537.36" etag="7v-rBbJqISa6GmNZxfBZ" version="17.4.4" type="github">
  <diagram id="l3jzZtHm_ynfCJKRMoYy" name="Page-1">
    <mxGraphModel dx="1422" dy="754" grid="1" gridSize="10" guides="1" tooltips="1" connect="1" arrows="1" fold="1" page="1" pageScale="1" pageWidth="827" pageHeight="1169" math="0" shadow="0">
      <root>
        <mxCell id="0" />
        <mxCell id="1" parent="0" />
        <mxCell id="SaC81yeUVhlWyohO7RTg-1" value="&lt;span class=&quot;code-snippet__function&quot; style=&quot;margin: 0px ; padding: 0px ; outline: 0px ; max-width: 1000% ; color: rgb(51 , 51 , 51) ; font-family: &amp;#34;consolas&amp;#34; , &amp;#34;liberation mono&amp;#34; , &amp;#34;menlo&amp;#34; , &amp;#34;courier&amp;#34; , monospace ; font-size: 14px ; letter-spacing: 0.544px ; text-align: left ; background-color: rgba(0 , 0 , 0 , 0.03) ; visibility: visible ; box-sizing: border-box ; overflow-wrap: break-word&quot;&gt;&lt;span class=&quot;code-snippet__keyword&quot; style=&quot;margin: 0px ; padding: 0px ; outline: 0px ; max-width: 1000% ; box-sizing: border-box ; overflow-wrap: break-word ; color: rgb(202 , 125 , 55) ; visibility: visible&quot;&gt;void&lt;/span&gt; &lt;span class=&quot;code-snippet__title&quot; style=&quot;margin: 0px ; padding: 0px ; outline: 0px ; max-width: 1000% ; box-sizing: border-box ; overflow-wrap: break-word ; color: rgb(221 , 17 , 68) ; visibility: visible&quot;&gt;func&lt;/span&gt;&lt;span class=&quot;code-snippet__params&quot; style=&quot;margin: 0px ; padding: 0px ; outline: 0px ; max-width: 1000% ; box-sizing: border-box ; overflow-wrap: break-word ; visibility: visible&quot;&gt;(&lt;span class=&quot;code-snippet__keyword&quot; style=&quot;margin: 0px ; padding: 0px ; outline: 0px ; max-width: 1000% ; box-sizing: border-box ; overflow-wrap: break-word ; color: rgb(202 , 125 , 55) ; visibility: visible&quot;&gt;const&lt;/span&gt; &lt;span class=&quot;code-snippet__keyword&quot; style=&quot;margin: 0px ; padding: 0px ; outline: 0px ; max-width: 1000% ; box-sizing: border-box ; overflow-wrap: break-word ; color: rgb(202 , 125 , 55) ; visibility: visible&quot;&gt;char&lt;/span&gt;* s)&lt;/span&gt;&lt;/span&gt;&lt;span style=&quot;color: rgb(51 , 51 , 51) ; font-family: &amp;#34;consolas&amp;#34; , &amp;#34;liberation mono&amp;#34; , &amp;#34;menlo&amp;#34; , &amp;#34;courier&amp;#34; , monospace ; font-size: 14px ; letter-spacing: 0.544px ; text-align: left ; background-color: rgba(0 , 0 , 0 , 0.03)&quot;&gt;;&lt;/span&gt;" style="rounded=0;whiteSpace=wrap;html=1;" vertex="1" parent="1">
          <mxGeometry x="480" y="160" width="280" height="40" as="geometry" />
        </mxCell>
        <mxCell id="SaC81yeUVhlWyohO7RTg-2" value="&lt;span class=&quot;code-snippet__function&quot; style=&quot;margin: 0px ; padding: 0px ; outline: 0px ; max-width: 1000% ; color: rgb(51 , 51 , 51) ; font-family: &amp;#34;consolas&amp;#34; , &amp;#34;liberation mono&amp;#34; , &amp;#34;menlo&amp;#34; , &amp;#34;courier&amp;#34; , monospace ; font-size: 14px ; letter-spacing: 0.544px ; text-align: left ; background-color: rgba(0 , 0 , 0 , 0.03) ; visibility: visible ; box-sizing: border-box ; overflow-wrap: break-word&quot;&gt;&lt;span class=&quot;code-snippet__keyword&quot; style=&quot;margin: 0px ; padding: 0px ; outline: 0px ; max-width: 1000% ; box-sizing: border-box ; overflow-wrap: break-word ; color: rgb(202 , 125 , 55) ; visibility: visible&quot;&gt;void&lt;/span&gt; &lt;span class=&quot;code-snippet__title&quot; style=&quot;margin: 0px ; padding: 0px ; outline: 0px ; max-width: 1000% ; box-sizing: border-box ; overflow-wrap: break-word ; color: rgb(221 , 17 , 68) ; visibility: visible&quot;&gt;func&lt;/span&gt;&lt;span class=&quot;code-snippet__params&quot; style=&quot;margin: 0px ; padding: 0px ; outline: 0px ; max-width: 1000% ; box-sizing: border-box ; overflow-wrap: break-word ; visibility: visible&quot;&gt;(&lt;span class=&quot;code-snippet__keyword&quot; style=&quot;margin: 0px ; padding: 0px ; outline: 0px ; max-width: 1000% ; box-sizing: border-box ; overflow-wrap: break-word ; color: rgb(202 , 125 , 55) ; visibility: visible&quot;&gt;const&lt;/span&gt; &lt;span class=&quot;code-snippet__built_in&quot; style=&quot;margin: 0px ; padding: 0px ; outline: 0px ; max-width: 1000% ; box-sizing: border-box ; overflow-wrap: break-word ; color: rgb(202 , 125 , 55) ; visibility: visible&quot;&gt;std&lt;/span&gt;::&lt;span class=&quot;code-snippet__built_in&quot; style=&quot;margin: 0px ; padding: 0px ; outline: 0px ; max-width: 1000% ; box-sizing: border-box ; overflow-wrap: break-word ; color: rgb(202 , 125 , 55) ; visibility: visible&quot;&gt;string&lt;/span&gt;&amp;nbsp;s)&lt;/span&gt;&lt;/span&gt;&lt;span style=&quot;color: rgb(51 , 51 , 51) ; font-family: &amp;#34;consolas&amp;#34; , &amp;#34;liberation mono&amp;#34; , &amp;#34;menlo&amp;#34; , &amp;#34;courier&amp;#34; , monospace ; font-size: 14px ; letter-spacing: 0.544px ; text-align: left ; background-color: rgba(0 , 0 , 0 , 0.03)&quot;&gt;;&lt;/span&gt;" style="rounded=0;whiteSpace=wrap;html=1;fontSize=16;" vertex="1" parent="1">
          <mxGeometry x="480" y="320" width="280" height="40" as="geometry" />
        </mxCell>
        <mxCell id="SaC81yeUVhlWyohO7RTg-9" style="edgeStyle=orthogonalEdgeStyle;rounded=0;orthogonalLoop=1;jettySize=auto;html=1;fontSize=16;fontColor=#EA6B66;fillColor=#d5e8d4;strokeColor=#82b366;strokeWidth=2;" edge="1" parent="1" source="SaC81yeUVhlWyohO7RTg-3">
          <mxGeometry relative="1" as="geometry">
            <mxPoint x="480" y="180" as="targetPoint" />
          </mxGeometry>
        </mxCell>
        <mxCell id="SaC81yeUVhlWyohO7RTg-3" value="&lt;span class=&quot;code-snippet__function&quot; style=&quot;margin: 0px ; padding: 0px ; outline: 0px ; max-width: 1000% ; font-family: &amp;#34;consolas&amp;#34; , &amp;#34;liberation mono&amp;#34; , &amp;#34;menlo&amp;#34; , &amp;#34;courier&amp;#34; , monospace ; font-size: 14px ; letter-spacing: 0.544px ; text-align: left ; background-color: rgba(0 , 0 , 0 , 0.03) ; visibility: visible ; box-sizing: border-box ; overflow-wrap: break-word&quot;&gt;&lt;font color=&quot;#ca7d37&quot;&gt;const char*&amp;nbsp;&lt;/font&gt;&lt;/span&gt;&lt;span class=&quot;code-snippet__function&quot; style=&quot;margin: 0px ; padding: 0px ; outline: 0px ; max-width: 1000% ; color: rgb(51 , 51 , 51) ; font-family: &amp;#34;consolas&amp;#34; , &amp;#34;liberation mono&amp;#34; , &amp;#34;menlo&amp;#34; , &amp;#34;courier&amp;#34; , monospace ; font-size: 14px ; letter-spacing: 0.544px ; text-align: left ; background-color: rgba(0 , 0 , 0 , 0.03) ; visibility: visible ; box-sizing: border-box ; overflow-wrap: break-word&quot;&gt;&lt;span class=&quot;code-snippet__title&quot; style=&quot;margin: 0px ; padding: 0px ; outline: 0px ; max-width: 1000% ; box-sizing: border-box ; overflow-wrap: break-word ; color: rgb(221 , 17 , 68) ; visibility: visible&quot;&gt;s =&amp;nbsp;&lt;/span&gt;&lt;span class=&quot;code-snippet__params&quot; style=&quot;margin: 0px ; padding: 0px ; outline: 0px ; max-width: 1000% ; box-sizing: border-box ; overflow-wrap: break-word ; visibility: visible&quot;&gt;&lt;span class=&quot;code-snippet__string&quot; style=&quot;margin: 0px ; padding: 0px ; outline: 0px ; max-width: 1000% ; box-sizing: border-box ; overflow-wrap: break-word ; color: rgb(221 , 17 , 68) ; visibility: visible&quot;&gt;&quot;fdsfds&quot;&lt;/span&gt;&lt;/span&gt;&lt;/span&gt;&lt;span style=&quot;color: rgb(51 , 51 , 51) ; font-family: &amp;#34;consolas&amp;#34; , &amp;#34;liberation mono&amp;#34; , &amp;#34;menlo&amp;#34; , &amp;#34;courier&amp;#34; , monospace ; font-size: 14px ; letter-spacing: 0.544px ; text-align: left ; background-color: rgba(0 , 0 , 0 , 0.03)&quot;&gt;;&lt;/span&gt;" style="rounded=0;whiteSpace=wrap;html=1;fontSize=16;" vertex="1" parent="1">
          <mxGeometry x="80" y="160" width="240" height="40" as="geometry" />
        </mxCell>
        <mxCell id="SaC81yeUVhlWyohO7RTg-8" style="edgeStyle=orthogonalEdgeStyle;rounded=0;orthogonalLoop=1;jettySize=auto;html=1;fontSize=16;fontColor=#EA6B66;fillColor=#d5e8d4;strokeColor=#82b366;strokeWidth=2;" edge="1" parent="1" source="SaC81yeUVhlWyohO7RTg-4">
          <mxGeometry relative="1" as="geometry">
            <mxPoint x="480" y="340" as="targetPoint" />
          </mxGeometry>
        </mxCell>
        <mxCell id="SaC81yeUVhlWyohO7RTg-4" value="&lt;span class=&quot;code-snippet__built_in&quot; style=&quot;margin: 0px ; padding: 0px ; outline: 0px ; max-width: 1000% ; color: rgb(202 , 125 , 55) ; font-family: &amp;#34;consolas&amp;#34; , &amp;#34;liberation mono&amp;#34; , &amp;#34;menlo&amp;#34; , &amp;#34;courier&amp;#34; , monospace ; font-size: 14px ; letter-spacing: 0.544px ; text-align: left ; background-color: rgba(0 , 0 , 0 , 0.03) ; visibility: visible ; box-sizing: border-box ; overflow-wrap: break-word&quot;&gt;std&lt;/span&gt;&lt;span style=&quot;color: rgb(51 , 51 , 51) ; font-family: &amp;#34;consolas&amp;#34; , &amp;#34;liberation mono&amp;#34; , &amp;#34;menlo&amp;#34; , &amp;#34;courier&amp;#34; , monospace ; font-size: 14px ; letter-spacing: 0.544px ; text-align: left ; background-color: rgba(0 , 0 , 0 , 0.03)&quot;&gt;::&lt;/span&gt;&lt;span class=&quot;code-snippet__function&quot; style=&quot;margin: 0px ; padding: 0px ; outline: 0px ; max-width: 1000% ; color: rgb(51 , 51 , 51) ; font-family: &amp;#34;consolas&amp;#34; , &amp;#34;liberation mono&amp;#34; , &amp;#34;menlo&amp;#34; , &amp;#34;courier&amp;#34; , monospace ; font-size: 14px ; letter-spacing: 0.544px ; text-align: left ; background-color: rgba(0 , 0 , 0 , 0.03) ; visibility: visible ; box-sizing: border-box ; overflow-wrap: break-word&quot;&gt;&lt;span class=&quot;code-snippet__built_in&quot; style=&quot;margin: 0px ; padding: 0px ; outline: 0px ; max-width: 1000% ; box-sizing: border-box ; overflow-wrap: break-word ; color: rgb(202 , 125 , 55) ; visibility: visible&quot;&gt;string&lt;/span&gt; &lt;span class=&quot;code-snippet__title&quot; style=&quot;margin: 0px ; padding: 0px ; outline: 0px ; max-width: 1000% ; box-sizing: border-box ; overflow-wrap: break-word ; color: rgb(221 , 17 , 68) ; visibility: visible&quot;&gt;s&lt;/span&gt;&lt;span class=&quot;code-snippet__params&quot; style=&quot;margin: 0px ; padding: 0px ; outline: 0px ; max-width: 1000% ; box-sizing: border-box ; overflow-wrap: break-word ; visibility: visible&quot;&gt;(&lt;span class=&quot;code-snippet__string&quot; style=&quot;margin: 0px ; padding: 0px ; outline: 0px ; max-width: 1000% ; box-sizing: border-box ; overflow-wrap: break-word ; color: rgb(221 , 17 , 68) ; visibility: visible&quot;&gt;&quot;fdsfds&quot;&lt;/span&gt;)&lt;/span&gt;&lt;/span&gt;&lt;span style=&quot;color: rgb(51 , 51 , 51) ; font-family: &amp;#34;consolas&amp;#34; , &amp;#34;liberation mono&amp;#34; , &amp;#34;menlo&amp;#34; , &amp;#34;courier&amp;#34; , monospace ; font-size: 14px ; letter-spacing: 0.544px ; text-align: left ; background-color: rgba(0 , 0 , 0 , 0.03)&quot;&gt;;&lt;/span&gt;" style="rounded=0;whiteSpace=wrap;html=1;fontSize=16;" vertex="1" parent="1">
          <mxGeometry x="80" y="320" width="240" height="40" as="geometry" />
        </mxCell>
        <mxCell id="SaC81yeUVhlWyohO7RTg-5" value="" style="endArrow=classic;html=1;rounded=0;fontSize=16;exitX=1;exitY=0.5;exitDx=0;exitDy=0;entryX=0;entryY=0.5;entryDx=0;entryDy=0;fillColor=#d5e8d4;strokeColor=#82b366;strokeWidth=2;" edge="1" parent="1" source="SaC81yeUVhlWyohO7RTg-4" target="SaC81yeUVhlWyohO7RTg-1">
          <mxGeometry width="50" height="50" relative="1" as="geometry">
            <mxPoint x="340" y="330" as="sourcePoint" />
            <mxPoint x="390" y="280" as="targetPoint" />
          </mxGeometry>
        </mxCell>
        <mxCell id="SaC81yeUVhlWyohO7RTg-6" value="&lt;font color=&quot;#67ab9f&quot;&gt;s.str();&lt;/font&gt;" style="edgeLabel;html=1;align=center;verticalAlign=middle;resizable=0;points=[];fontSize=16;labelBorderColor=default;" vertex="1" connectable="0" parent="SaC81yeUVhlWyohO7RTg-5">
          <mxGeometry x="-0.3938" y="1" relative="1" as="geometry">
            <mxPoint x="-18" y="20" as="offset" />
          </mxGeometry>
        </mxCell>
        <mxCell id="SaC81yeUVhlWyohO7RTg-7" value="" style="endArrow=classic;html=1;rounded=0;fontSize=16;fontColor=#EA6B66;exitX=1;exitY=0.5;exitDx=0;exitDy=0;entryX=0;entryY=0.5;entryDx=0;entryDy=0;fillColor=#f8cecc;strokeColor=#b85450;strokeWidth=2;" edge="1" parent="1" source="SaC81yeUVhlWyohO7RTg-3" target="SaC81yeUVhlWyohO7RTg-2">
          <mxGeometry width="50" height="50" relative="1" as="geometry">
            <mxPoint x="240" y="490" as="sourcePoint" />
            <mxPoint x="290" y="440" as="targetPoint" />
          </mxGeometry>
        </mxCell>
        <mxCell id="SaC81yeUVhlWyohO7RTg-10" value="&lt;div style=&quot;text-align: left ; font-size: 14px&quot;&gt;&lt;font style=&quot;font-size: 14px&quot;&gt;&lt;b&gt;&lt;i&gt;隐&lt;font style=&quot;font-size: 14px&quot;&gt;式构造std::string对象&lt;/font&gt;&lt;/i&gt;&lt;/b&gt;&lt;/font&gt;&lt;/div&gt;&lt;font style=&quot;font-size: 14px&quot;&gt;&lt;div style=&quot;text-align: left&quot;&gt;&lt;b&gt;&lt;i&gt;性能降低，不推荐&lt;/i&gt;&lt;/b&gt;&lt;/div&gt;&lt;/font&gt;" style="edgeLabel;html=1;align=center;verticalAlign=middle;resizable=0;points=[];fontSize=15;fontColor=#EA6B66;labelBackgroundColor=none;labelBorderColor=default;" vertex="1" connectable="0" parent="SaC81yeUVhlWyohO7RTg-7">
          <mxGeometry x="-0.5438" y="-1" relative="1" as="geometry">
            <mxPoint x="-26" y="13" as="offset" />
          </mxGeometry>
        </mxCell>
        <mxCell id="SaC81yeUVhlWyohO7RTg-11" value="" style="endArrow=none;dashed=1;html=1;strokeWidth=1;rounded=0;fontSize=14;fontColor=#67AB9F;" edge="1" parent="1">
          <mxGeometry width="50" height="50" relative="1" as="geometry">
            <mxPoint x="400" y="440" as="sourcePoint" />
            <mxPoint x="400" y="80" as="targetPoint" />
          </mxGeometry>
        </mxCell>
        <mxCell id="SaC81yeUVhlWyohO7RTg-12" value="&lt;font style=&quot;font-size: 18px&quot;&gt;实参&lt;/font&gt;" style="text;html=1;strokeColor=none;fillColor=none;align=center;verticalAlign=middle;whiteSpace=wrap;rounded=0;labelBackgroundColor=none;labelBorderColor=default;fontSize=14;fontColor=#67AB9F;" vertex="1" parent="1">
          <mxGeometry x="160" y="80" width="80" height="40" as="geometry" />
        </mxCell>
        <mxCell id="SaC81yeUVhlWyohO7RTg-14" value="&lt;font style=&quot;font-size: 18px&quot; color=&quot;#ea6b66&quot;&gt;形参&lt;/font&gt;" style="text;html=1;strokeColor=none;fillColor=none;align=center;verticalAlign=middle;whiteSpace=wrap;rounded=0;labelBackgroundColor=none;labelBorderColor=default;fontSize=14;fontColor=#67AB9F;" vertex="1" parent="1">
          <mxGeometry x="590" y="80" width="80" height="40" as="geometry" />
        </mxCell>
      </root>
    </mxGraphModel>
  </diagram>
</mxfile>
